<svg width="60" height="60" viewBox="0 0 60 60" fill="none" xmlns="http://www.w3.org/2000/svg">
<circle cx="30" cy="30" r="30" fill="#FF7931"/>
<path d="M30.6183 50.1031C41.3793 50.1031 50.1029 41.3796 50.1029 30.6186C50.1029 19.8576 41.3793 11.134 30.6183 11.134C19.8573 11.134 11.1338 19.8576 11.1338 30.6186C11.1338 41.3796 19.8573 50.1031 30.6183 50.1031Z" stroke="white" stroke-width="2" stroke-miterlimit="10"/>
<path d="M30.6193 45.5909C38.8883 45.5909 45.5916 38.8876 45.5916 30.6186C45.5916 22.3496 38.8883 15.6462 30.6193 15.6462C22.3503 15.6462 15.647 22.3496 15.647 30.6186C15.647 38.8876 22.3503 45.5909 30.6193 45.5909Z" stroke="white" stroke-width="2" stroke-miterlimit="10"/>
<path d="M30.6188 36.703C33.9793 36.703 36.7035 33.9788 36.7035 30.6183C36.7035 27.2579 33.9793 24.5337 30.6188 24.5337C27.2584 24.5337 24.5342 27.2579 24.5342 30.6183C24.5342 33.9788 27.2584 36.703 30.6188 36.703Z" stroke="white" stroke-width="2" stroke-miterlimit="10"/>
<path d="M30.6185 33.9001C32.4687 33.9001 33.9685 32.4003 33.9685 30.5502C33.9685 28.7 32.4687 27.2002 30.6185 27.2002C28.7684 27.2002 27.2686 28.7 27.2686 30.5502C27.2686 32.4003 28.7684 33.9001 30.6185 33.9001Z" stroke="white" stroke-width="2" stroke-miterlimit="10"/>
<path d="M25.9019 16.3984C26.0386 17.0137 26.1754 17.6974 26.1754 18.3127C26.1754 22.6198 22.6887 26.1065 18.3816 26.1065C17.6979 26.1065 17.0826 26.0382 16.4673 25.8331" stroke="white" stroke-width="2" stroke-miterlimit="10"/>
<path d="M35.3365 16.3984C35.1997 17.0137 35.063 17.6974 35.063 18.3127C35.063 22.6198 38.5497 26.1065 42.8568 26.1065C43.5405 26.1065 44.1558 26.0382 44.7711 25.8331" stroke="white" stroke-width="2" stroke-miterlimit="10"/>
<path d="M25.9019 44.8389C26.0386 44.2236 26.1754 43.54 26.1754 42.9247C26.1754 38.6176 22.6887 35.1309 18.3816 35.1309C17.6979 35.1309 17.0826 35.1992 16.4673 35.4043" stroke="white" stroke-width="2" stroke-miterlimit="10"/>
<path d="M35.3365 44.8389C35.1997 44.2236 35.063 43.54 35.063 42.9247C35.063 38.6176 38.5497 35.1309 42.8568 35.1309C43.5405 35.1309 44.1558 35.1992 44.7711 35.4043" stroke="white" stroke-width="2" stroke-miterlimit="10"/>
</svg>
