<svg width="60" height="60" viewBox="0 0 60 60" fill="none" xmlns="http://www.w3.org/2000/svg">
<circle cx="30" cy="30" r="30" fill="#FF7931"/>
<path d="M33.8887 14.8456V25.1529C33.8887 25.2172 33.8887 25.346 33.8887 25.4103C33.6379 26.4403 32.0071 27.2127 30.0628 27.2127C28.1184 27.2127 26.4877 26.4403 26.2368 25.4103C26.2368 25.346 26.2368 25.2816 26.2368 25.1529V14.6605C26.2368 14.5962 26.2368 14.4674 26.2995 14.403C26.6131 13.6306 28.1812 13.0513 30.1255 13.0513C32.0698 13.0513 33.7114 13.6084 33.795 14.403C33.795 14.403 33.8887 14.7168 33.8887 14.8456Z" stroke="white" stroke-width="2" stroke-miterlimit="10"/>
<path d="M29.9992 13.0514C29.5602 13.0514 29.2466 12.6651 29.2466 12.2789V10.6697C29.2466 10.2191 29.6229 9.89722 29.9992 9.89722C30.4383 9.89722 30.7519 10.2834 30.7519 10.6697V12.2789C30.7519 12.7295 30.4383 13.0514 29.9992 13.0514Z" fill="white"/>
<path d="M29.2465 11.1204C29.2465 11.1204 28.9956 12.4721 26.9258 13.1158H29.9991L29.2465 11.1204Z" fill="white"/>
<path d="M30.7517 11.1204C30.7517 11.1204 31.0026 12.4721 33.0723 13.1158H29.999L30.7517 11.1204Z" fill="white"/>
<path d="M32.0698 27.0195H27.9302V29.1437H32.0698V27.0195Z" fill="white" fill-opacity="0.7"/>
<path d="M29.9999 30.4956C32.979 30.4956 35.3939 30.1497 35.3939 29.7231C35.3939 29.2965 32.979 28.9507 29.9999 28.9507C27.0209 28.9507 24.606 29.2965 24.606 29.7231C24.606 30.1497 27.0209 30.4956 29.9999 30.4956Z" stroke="white" stroke-width="2" stroke-miterlimit="10"/>
<path d="M24.606 29.4014V33.1348" stroke="white" stroke-width="2" stroke-miterlimit="10"/>
<path d="M35.394 29.7229V33.392" stroke="white" stroke-width="2" stroke-miterlimit="10"/>
<path d="M38.9689 33.9072C38.9689 34.6153 34.9548 35.7739 29.9998 35.7739C25.0449 35.7739 21.0308 34.6796 21.0308 33.9072C21.0308 33.6497 23.1005 32.5554 24.6058 32.5554C25.6094 32.8129 28.4945 33.0704 29.9998 33.0704C31.5051 33.0704 34.453 32.8129 35.3938 32.5554C36.9618 32.6198 38.9689 33.6497 38.9689 33.9072Z" stroke="white" stroke-width="2" stroke-miterlimit="10"/>
<path d="M35.3939 35.3235V41.0524C35.3939 41.6318 32.9478 42.0823 29.9999 42.0823C27.0521 42.0823 24.606 41.6318 24.606 41.0524V35.3235" stroke="white" stroke-width="2" stroke-miterlimit="10"/>
<path d="M26.1113 41.5671V47.3604" stroke="white" stroke-width="2" stroke-miterlimit="10"/>
<path d="M33.8887 41.5671V47.3604" stroke="white" stroke-width="2" stroke-miterlimit="10"/>
<path d="M31.0036 49.4848H28.9965C28.5575 49.4848 28.1812 49.0986 28.1812 48.648V42.0823H31.7562V48.648C31.819 49.0986 31.4426 49.4848 31.0036 49.4848Z" stroke="white" stroke-width="2" stroke-miterlimit="10"/>
</svg>
