<svg width="60" height="60" viewBox="0 0 60 60" fill="none" xmlns="http://www.w3.org/2000/svg">
<circle cx="30" cy="30" r="30" fill="#FF7931"/>
<path d="M37.7327 14.2269C37.7327 14.2269 37.7327 15.6496 38.2894 16.6393C38.6605 17.2578 40.578 19.9795 41.7533 21.4022C42.4956 22.2681 42.31 23.1341 42.31 23.3197V47.2578C42.31 47.8145 41.8152 48.1857 41.1347 48.1857H18.1863C17.5677 48.1857 17.3203 47.8145 17.3203 47.2578V26.8455C17.3203 24.9279 17.9389 23.1341 19.7945 21.897L30.9904 16.5774C31.9182 16.1444 32.5368 15.3403 32.5987 14.4743C32.5987 14.3506 32.5987 14.2888 32.5987 14.165H37.7327V14.2269Z" stroke="white" stroke-width="3" stroke-miterlimit="10"/>
<path d="M37.7324 14.5362H32.1654C31.7943 14.5362 31.5469 14.227 31.5469 13.9177V11.1342C31.5469 10.763 31.8562 10.5156 32.1654 10.5156H37.7324C38.1036 10.5156 38.351 10.8249 38.351 11.1342V13.9177C38.351 14.227 38.0417 14.5362 37.7324 14.5362Z" stroke="white" stroke-width="3" stroke-miterlimit="10"/>
<path d="M26.5991 38.0415H38.9703" stroke="white" stroke-width="3" stroke-miterlimit="10"/>
<path d="M26.5991 42.9897H34.6404" stroke="white" stroke-width="3" stroke-miterlimit="10"/>
</svg>
