<svg width="60" height="60" viewBox="0 0 60 60" fill="none" xmlns="http://www.w3.org/2000/svg">
<circle cx="30" cy="30" r="30" fill="#FF7931"/>
<rect x="17.7012" y="29.4536" width="25.2165" height="3.56701" stroke="white" stroke-width="2"/>
<path d="M26.0862 25.598L27.713 20.1753H33.2398L34.5954 25.598H26.0862Z" stroke="white" stroke-width="2"/>
<path d="M26.1217 36.8761L27.6939 41.6802H32.9245L34.4967 36.8761H26.1217Z" stroke="white" stroke-width="2"/>
<mask id="path-5-inside-1" fill="white">
<path d="M27.252 4.94849H33.3659V17.1764H27.252V4.94849Z"/>
</mask>
<path d="M27.252 4.94849V2.94849H25.252V4.94849H27.252ZM33.3659 4.94849H35.3659V2.94849H33.3659V4.94849ZM33.3659 17.1764V19.1764H35.3659V17.1764H33.3659ZM27.252 17.1764H25.252V19.1764H27.252V17.1764ZM27.252 6.94849H33.3659V2.94849H27.252V6.94849ZM31.3659 4.94849V17.1764H35.3659V4.94849H31.3659ZM33.3659 15.1764H27.252V19.1764H33.3659V15.1764ZM29.252 17.1764V4.94849H25.252V17.1764H29.252Z" fill="white" mask="url(#path-5-inside-1)"/>
<mask id="path-7-inside-2" fill="white">
<path d="M27.252 44.4241H33.3659V55.1235H27.252V44.4241Z"/>
</mask>
<path d="M27.252 44.4241V42.4241H25.252V44.4241H27.252ZM33.3659 44.4241H35.3659V42.4241H33.3659V44.4241ZM33.3659 55.1235V57.1235H35.3659V55.1235H33.3659ZM27.252 55.1235H25.252V57.1235H27.252V55.1235ZM27.252 46.4241H33.3659V42.4241H27.252V46.4241ZM31.3659 44.4241V55.1235H35.3659V44.4241H31.3659ZM33.3659 53.1235H27.252V57.1235H33.3659V53.1235ZM29.252 55.1235V44.4241H25.252V55.1235H29.252Z" fill="white" mask="url(#path-7-inside-2)"/>
<circle cx="30.3089" cy="8.65972" r="1.23711" fill="white"/>
<circle cx="30.3089" cy="51.3404" r="1.23711" fill="white"/>
</svg>
