<svg width="60" height="60" viewBox="0 0 60 60" fill="none" xmlns="http://www.w3.org/2000/svg">
<circle cx="30" cy="30" r="30" fill="#FF7931"/>
<rect x="14.6079" y="26.9792" width="31.4021" height="16.5567" stroke="white" stroke-width="2"/>
<rect x="12.1338" y="20.7939" width="36.3505" height="2.3299" rx="1.16495" stroke="white" stroke-width="2"/>
<rect x="21.3399" y="15.1546" width="17.9381" height="1.85567" stroke="white" stroke-width="1.85567"/>
<path d="M15.4639 15.7732C15.4639 14.9191 16.1562 14.2268 17.0103 14.2268C17.8643 14.2268 18.5567 14.9191 18.5567 15.7732V17.9381H15.4639V15.7732Z" fill="white"/>
<path d="M42.062 16.0825C42.062 15.0576 42.8928 14.2268 43.9177 14.2268C44.9425 14.2268 45.7734 15.0576 45.7734 16.0825V17.9381H42.062V16.0825Z" fill="white"/>
<rect x="37.5732" y="31.5994" width="1.10888" height="7.02288" rx="0.554438" fill="white"/>
<rect x="34.6167" y="35.665" width="1.10888" height="7.02288" rx="0.554438" transform="rotate(-90 34.6167 35.665)" fill="white"/>
<rect x="19.1753" y="35.8765" width="1.23711" height="6.80412" rx="0.618557" transform="rotate(-90 19.1753 35.8765)" fill="white"/>
</svg>
